<svg xmlns="http://www.w3.org/2000/svg" width="43.79mm" height="25.7mm" viewBox="0 0 124.14 72.84">
  <g id="Layer_2" data-name="Layer 2">
    <g id="Layer_1-2" data-name="Layer 1">
      <g id="Layer_1-3" data-name="Layer 1">
        <path d="M54.63,43.24c-12.22-3.19-1-17.74,14-14.68,17.52,3.58,2.71,19-14,14.68M46.75,7c28.94-9.18,3.67,8.43,25.68,16.09,12.36,4.33,70.49,4.59,26.09,18.76-25.95,8.29-4.49-10.22-27.17-16C59.94,22.91,2.21,21.12,46.76,7M26.52,30.73c29.07-9.19,3.94,8.42,25.68,15.7,12.21,4.11,71.57,4.6,26.07,19.11-25.95,8.3-6.11-8.8-27.17-16-12-4.21-69-4.85-24.59-18.89m-.67-2.11c-60.18,19.66.67,16.85,22.54,23.74,13.45,4.09.55,19-17.93,16.08,10.33,8.81,39,2.42,48.5-.64,41.16-13.4,23.77-16.84,2.31-19.65A118.12,118.12,0,0,0,99.19,44c60.17-19.66-4.89-17.74-24.72-24.13-12.95-4.32,1.9-17.2,20.1-15.67C85.2-4,55.72,1.76,46.07,5c-43.73,14.3-23.49,16.72-.81,19.53a119.25,119.25,0,0,0-19.42,4.06" style="fill: #9c9d97"/>
      </g>
    </g>
  </g>
</svg>
