<?xml version="1.0" encoding="UTF-8"?> <svg xmlns="http://www.w3.org/2000/svg" viewBox="0 0 702.1 107"><defs><style>.cls-1{fill:#9b9e98;}</style></defs><title>TMSsite</title><g id="Layer_1" data-name="Layer 1"><polygon class="cls-1" points="269.12 55.33 283.79 75.04 347.63 75.04 327.9 53.84 285.96 53.84 285.96 43.46 327.9 43.46 347.63 22.26 283.82 22.26 270.63 40.82 255.24 40.82 241.28 22.26 174.75 22.26 194.48 43.46 238.91 43.46 238.91 53.84 194.48 53.84 174.75 75.04 241.23 75.04 254.9 55.33 269.12 55.33"></polygon><polygon class="cls-1" points="523.46 53.69 493.55 21.51 447.82 21.51 431.88 0.37 431.88 43.03 496.05 43.03 496.05 53.38 369.69 53.38 354.41 74.9 375.04 74.9 393.39 106.77 458.65 106.77 458.65 85.04 390.79 85.04 390.86 74.9 514.93 74.9 534.03 53.8 523.46 53.69"></polygon><polygon class="cls-1" points="640.4 53.84 640.4 43.46 682.35 43.46 702.07 22.26 638.26 22.26 625.07 40.82 609.68 40.82 595.72 22.26 529.19 22.26 548.92 43.46 593.35 43.46 593.35 53.84 548.92 53.84 529.19 75.04 595.67 75.04 609.34 55.33 623.56 55.33 638.24 75.04 702.07 75.04 682.35 53.84 640.4 53.84"></polygon><polygon class="cls-1" points="169.02 53.69 139.11 21.51 93.37 21.51 77.44 0.37 77.44 43.03 141.61 43.03 141.61 53.38 15.25 53.38 -0.03 74.9 20.6 74.9 38.95 106.77 104.21 106.77 104.21 85.04 36.35 85.04 36.41 74.9 160.49 74.9 179.59 53.8 169.02 53.69"></polygon></g></svg> 