<?xml version="1.0" encoding="UTF-8"?> <svg xmlns="http://www.w3.org/2000/svg" viewBox="0 0 542.27 75.87"><defs><style>.cls-1{fill:#231f20;}</style></defs><title>TMS_logo</title><g id="Layer_1" data-name="Layer 1"><polygon class="cls-1" points="23.07 68.31 36.16 68.31 36.16 14.86 32.91 17.95 57.83 17.95 57.83 6.78 1.64 6.78 1.64 17.95 26.48 17.95 23.07 14.86 23.07 68.31"></polygon><polygon class="cls-1" points="65.65 68.31 78.74 68.31 78.74 7.94 73.15 7.94 93.66 68.31 105.08 68.31 124.59 7.94 120.09 7.94 120.09 68.31 133.18 68.31 133.18 6.78 114.09 6.78 96.91 58.97 101.83 58.97 83.91 6.78 65.65 6.78 65.65 68.31"></polygon><path class="cls-1" d="M164.56,69.18h1.33c15.43,0,25.35-6.42,25.35-17.76v-.75c0-14.76-13.76-17.76-24.26-19.34-1-.17-1.26-.17-2.17-.33-5.92-.92-10.5-2.59-10.5-7.59v-.25c0-4.09,3.75-6.5,10.58-6.5h1.17c6.17,0,10.59,3.16,11.09,7.5l.25,1.25h12.42l-.17-1.33C188.4,12.49,179.07,5.9,166.14,5.9h-1.25c-14.42,0-23.84,6.17-23.84,17.43V24c0,12.51,11.75,17.09,21.92,18.76.92.17,1.09.17,2,.34,6.92,1.17,13.09,2.75,13.09,8.25v.16c0,5.34-4.92,6.84-12.18,6.84h-1.33c-6.92,0-11.67-3.33-11.92-8.59l-.17-1.25H139.71v1.42c0,11.51,10.34,19.26,24.85,19.26"></path><path class="cls-1" d="M375.84,69.18h1.33c15.43,0,25.34-6.42,25.34-17.76v-.75c0-14.76-13.75-17.76-24.26-19.34-1-.17-1.25-.17-2.17-.33-5.91-.92-10.5-2.59-10.5-7.59v-.25c0-4.09,3.75-6.5,10.59-6.5h1.17c6.17,0,10.58,3.16,11.09,7.5l.24,1.25H401.1l-.17-1.33C399.68,12.49,390.34,5.9,377.42,5.9h-1.25c-14.42,0-23.85,6.17-23.85,17.43V24c0,12.51,11.76,17.09,21.93,18.76.92.17,1.09.17,2,.34,6.92,1.17,13.09,2.75,13.09,8.25v.16c0,5.34-4.92,6.84-12.17,6.84h-1.33c-6.92,0-11.68-3.33-11.93-8.59l-.16-1.25H351v1.42c0,11.51,10.34,19.26,24.85,19.26"></path><rect class="cls-1" x="410.33" y="6.78" width="13.09" height="61.53"></rect><polygon class="cls-1" points="452.66 68.31 465.75 68.31 465.75 14.86 462.5 17.95 487.43 17.95 487.43 6.78 431.24 6.78 431.24 17.95 456.08 17.95 452.66 14.86 452.66 68.31"></polygon><polygon class="cls-1" points="495.24 68.35 540.51 68.35 540.51 57.09 501.41 57.09 508.33 65.26 508.33 34.91 501.33 43 535.93 43 535.93 32.08 501.41 32.08 508.33 40.17 508.33 9.82 501.41 17.99 540.51 17.99 540.51 6.73 495.24 6.73 495.24 68.35"></polygon><path class="cls-1" d="M264.11,44.7c-12.22-3.19-.95-17.74,14-14.68,17.52,3.58,2.71,19-14,14.68M256.23,8.45c28.94-9.18,3.67,8.43,25.68,16.09C294.27,28.87,352.4,29.13,308,43.3c-25.95,8.29-4.49-10.22-27.17-16-11.41-2.93-69.14-4.72-24.59-18.89M236,32.19c29.07-9.19,3.94,8.42,25.68,15.7C273.89,52,333.25,52.49,287.75,67c-25.95,8.3-6.11-8.8-27.17-16-11.95-4.21-69-4.85-24.59-18.89M235.32,30c-60.18,19.66.67,16.85,22.54,23.74,13.45,4.09.55,19-17.93,16.08,10.33,8.81,39,2.42,48.5-.64,41.16-13.4,23.77-16.84,2.31-19.65a119,119,0,0,0,17.93-4.08c60.17-19.66-4.89-17.74-24.72-24.13C271,17,285.85,4.12,304.05,5.65c-9.37-8.17-38.85-2.43-48.5.76-43.73,14.3-23.49,16.72-.81,19.53A118.43,118.43,0,0,0,235.32,30"></path></g></svg> 