<svg xmlns="http://www.w3.org/2000/svg" width="35.2mm" height="35.2mm" viewBox="0 0 99.77 99.77">
  <g id="Layer_2" data-name="Layer 2">
    <g id="Layer_1-2" data-name="Layer 1">
      <g>
        <path d="M79.42,13c-14-2.87-24.6,10.78-13.13,13.77C82,30.85,95.85,16.39,79.42,13Z" style="fill: none"/>
        <path d="M29.78,63c-14-2.87-24.59,10.78-13.13,13.77C32.33,80.82,46.22,66.36,29.78,63Z" style="fill: none"/>
        <path d="M0,90.07a33.8,33.8,0,0,1,3.75.1A12.62,12.62,0,0,0,0,88Z" style="fill: #9c9d97"/>
        <path d="M81.84,65.66c.52-6.24-33.51-6.61-46.58-10.82C23.11,50.79,37,38.71,54.12,40.14c-8.08-7-32.09-3.06-42.95,0C15.36,36.26,9.24,34.17,0,32.6V36c5,1.66,6.47,3.89,0,7.22v2.89a90.59,90.59,0,0,1,9.27-3.42v0c27.15-8.61,3.44,7.91,24.09,15.09,11.59,4.06,66.12,4.31,24.47,17.6-24.34,7.78-4.21-9.59-25.48-15C26.77,59,9.46,57.88,0,55.25v2.92c2.51.34,5.17.67,7.86,1-2.63.32-5.25.76-7.86,1.27v2.23c11-1.11-2.68,11.37,14.37,17.08,11.46,3.86,67.14,4.32,24.46,17.93-24.34,7.79-5.73-8.25-25.49-15C10.67,81.74,5.61,81,0,80.22v2.7a79.15,79.15,0,0,1,10.79,2.33c9.58,2.92,4.9,11.67-5.49,14.52H43.94c.89-1.08,2.77-2.3,5.88-3.68,1.22-.47,2.34-.92,3.37-1.36,1.66-.63,3.55-1.28,5.71-2v0c19-6,13.13.22,14.9,7h6.58c.74-4.33,9.09-9.33,19.4-9.69V87.93c-9.89-3.64-28.3-.63-38,1.93,4.87-4.8-6.79-6.81-20.12-8.56a112.48,112.48,0,0,0,16.82-3.82c2.56-.84,4.87-1.63,7-2.39.13,4.37,19.31,5.42,34.36,7.8v-2.7C81.85,77.71,58.67,75,90.28,65V65a54.06,54.06,0,0,1,9.48-2.34V60.49C96.36,61.17,93,62,89.65,63,86.75,63.93,84.16,64.82,81.84,65.66ZM16.65,76.77c-11.46-3-.89-16.64,13.13-13.77C46.22,66.36,32.33,80.82,16.65,76.77Z" style="fill: #9c9d97"/>
        <path d="M80.33,0H73.85c.82,2.85,3.06,5.77,9.13,7.89,3.25,1.14,9.87,2,16.79,2.88v-3A97.35,97.35,0,0,1,84.9,4.87C81.47,3.72,80.12,1.94,80.33,0Z" style="fill: #9c9d97"/>
        <path d="M82,10.48C73.63,8.34,38.91,6.84,43.76,0H4.44A25.66,25.66,0,0,1,0,.64V3.33C10.15,6.18,26,3.37,35.14,1c-5,4.86,8.15,6.46,22.36,8.22A111.1,111.1,0,0,0,39.28,13c-2.9,1-5.48,1.84-7.81,2.68C31.84,11.23,14.64,9.77,0,7.77v3C17.74,13.13,37.31,16,7.45,25.49A44.93,44.93,0,0,1,0,27.33v2.35c2.72-.63,5.42-1.35,8.08-2.18s4.88-1.63,7-2.38c.16,5.57,31.33,5.73,45.37,10.16C73,39.11,60.94,53.1,43.61,50.36c8.67,7.4,31.1,3.38,42.11.39-4.53,4,3.29,5.89,14,7.39v-3c-6.82-1.94-9.36-4.68,0-8.93V43.37a80.25,80.25,0,0,1-11.31,4.35c-24.34,7.78-5.73-8.26-25.49-15C51.77,28.76-1.75,28.16,39.91,15v.07C67.19,6.44,43.61,23,64,29.79,70.41,32,90.64,33,99.77,36v-3.4c-2.64-.45-5.53-.85-8.51-1.24q4.29-.63,8.51-1.6V27.35C87.83,28.75,100.35,15.16,82,10.48ZM66.29,26.8c-11.47-3-.9-16.64,13.13-13.77C95.85,16.39,82,30.85,66.29,26.8Z" style="fill: #9c9d97"/>
        <path d="M94,.34a15.85,15.85,0,0,0,5.8,2.93V.65A28.9,28.9,0,0,1,94,.34Z" style="fill: #9c9d97"/>
      </g>
    </g>
  </g>
</svg>
