<?xml version="1.0" encoding="UTF-8"?>
<svg id="Layer_2" data-name="Layer 2" xmlns="http://www.w3.org/2000/svg" viewBox="0 0 616.81 71.75">
  <defs>
    <style>
      .cls-1 {
        fill: #c4c4c4;
      }
    </style>
  </defs>
  <g id="Layer_1-2" data-name="Layer 1">
    <path class="cls-1" d="M112.16,1.21l33.12-.05,14.08,69.82-24.14.04-2.32-12.77-26.84.04-5.77,12.78-24.14.04L112.16,1.21ZM126.85,15.56l-14.82,29.36,19.55-.03-4.54-29.32h-.2Z"/>
    <polygon class="cls-1" points="175.91 1.11 199.16 1.07 191.16 54.16 225.58 54.11 223.21 70.87 165.55 70.96 175.91 1.11"/>
    <polygon class="cls-1" points="394.9 .75 425.33 .7 431.53 70.53 408.28 70.57 404.71 21.39 404.51 21.39 383.64 70.61 356.1 70.66 350.64 20.28 350.43 20.28 333.55 70.69 310.81 70.73 336.54 .85 366.17 .8 372.44 53.17 372.64 53.17 394.9 .75"/>
    <polygon class="cls-1" points="595.86 .43 616.81 .4 606.45 70.25 573.93 70.3 552.9 20.26 552.69 20.26 545.99 70.35 523.84 70.39 534.21 .53 565.63 .48 587.87 51.62 588.06 51.62 595.86 .43"/>
    <g>
      <path class="cls-1" d="M239.15,66.95c-6.39-3.78-9.4-10.16-7.42-20.94l3.66-20.16c1.98-10.78,7.35-17.27,15.13-21.08,7.78-3.8,17.85-4.42,29.43-4.44,11.67-.02,21.35.56,27.74,4.35,6.29,3.78,9.29,10.26,7.32,21.04l-3.66,20.16c-1.98,10.78-7.26,17.17-14.93,20.98-7.67,3.8-17.95,4.52-29.52,4.54-11.67.02-21.35-.67-27.74-4.45M288.1,44.52l3.26-16.87c2.08-10.98-1.91-12.07-14.28-12.05-11.67.02-16.76,1.02-18.94,12.1l-3.27,16.87c-2.17,11.18,2.12,12.17,14.29,12.15,12.07-.02,16.76-1.12,18.94-12.2"/>
      <path class="cls-1" d="M445.91,66.61c-6.39-3.78-9.4-10.16-7.42-20.94l3.66-20.16c1.98-10.78,7.36-17.27,15.13-21.08C465.06.63,475.13.02,486.71,0c11.67-.02,21.35.56,27.74,4.35,6.29,3.78,9.29,10.26,7.32,21.04l-3.66,20.16c-1.98,10.78-7.26,17.17-14.93,20.98-7.68,3.8-17.95,4.52-29.52,4.54-11.68.02-21.35-.67-27.74-4.45M494.86,44.19l3.26-16.87c2.08-10.98-1.92-12.07-14.29-12.05-11.67.02-16.76,1.02-18.94,12.1l-3.26,16.87c-2.18,11.18,2.11,12.17,14.29,12.15,12.07-.02,16.76-1.12,18.94-12.2"/>
      <path class="cls-1" d="M69.36.63c11.79-.02,14.99,4.47,13.21,13.57l-2.18,10.99-21.68.03,1.19-6c.79-4,.09-4.9-6-5.28-1.7-.1-5-.19-7.59-.19-4.2,0-8.49.11-10.79.32-3.69.41-4.59,1.21-4.89,2.7-.5,2.5-.1,3.6,5.4,6.29l33.9,16.63c6.7,3.28,7.5,5.38,6.51,10.48l-1.39,6.79c-2.18,10.69-5.47,14.7-19.46,14.72l-39.16.06c-12.99.02-17.99-4.46-16.01-14.46l1.98-9.99,20.78-.03-1.39,7c-.4,2,.3,3.3,3.2,3.79,2.4.4,5.4.49,11.09.48,3.7,0,7.89-.11,10.69-.32,3.6-.31,4.4-.91,4.79-3,.49-2.4-.11-3.3-7.4-6.88l-25.1-12.25c-9.9-4.88-11.7-8.67-10.41-15.27l1.29-6.49C12.12,3.32,15.91.72,30.3.69l39.06-.06Z"/>
    </g>
  </g>
</svg>